<svg width="100" height="100" viewBox="0 0 100 100" fill="none" xmlns="http://www.w3.org/2000/svg">
<g id="Agreement">
<path id="Vector" d="M77.2031 13.4219C75.9844 12.2031 74 12.2031 72.7812 13.4219L63.4062 22.7969C63.0312 23.1719 61.5312 23.0469 60.2031 22.9375C57.4844 22.7031 53.4688 22.3594 50 25.3281C46.5312 22.3594 42.5 22.7031 39.7969 22.9375C38.4688 23.0469 36.9688 23.1719 36.5938 22.7969L27.2188 13.4219C26 12.2031 24.0156 12.2031 22.7969 13.4219L2.48437 33.7344C1.26562 34.9531 1.26562 36.9375 2.48437 38.1562L18.7344 54.4062L18.0625 55.0781C16.5938 56.5469 15.7812 58.5156 15.7812 60.6094C15.7812 62.7031 16.5938 64.6562 18.0625 66.125C19.2812 67.3437 20.8438 68.0781 22.5156 68.3125C22.75 69.9844 23.4844 71.5469 24.7031 72.7656C25.9219 73.9844 27.4688 74.7188 29.1406 74.9531C29.375 76.5781 30.0781 78.1406 31.3281 79.3906C32.5781 80.6406 34.1406 81.3438 35.7812 81.5781C36.0156 83.25 36.75 84.8125 37.9688 86.0312C39.4375 87.5 41.4062 88.3125 43.5 88.3125C45.5469 88.3125 47.4688 87.5156 48.9375 86.0937C50.4062 87.5156 52.3281 88.3125 54.375 88.3125C56.4531 88.3125 58.4219 87.5 59.9062 86.0312C61.125 84.8125 61.8594 83.2656 62.0938 81.5781C63.7188 81.3594 65.2969 80.6406 66.5469 79.3906C67.7969 78.1406 68.5 76.5781 68.7344 74.9531C70.4062 74.7188 71.9531 73.9844 73.1719 72.7656C74.3906 71.5469 75.125 69.9844 75.3594 68.3125C77.0469 68.0781 78.5938 67.3437 79.8125 66.125C81.2812 64.6562 82.0938 62.6875 82.0938 60.5937C82.0938 58.7187 81.4062 56.9531 80.1875 55.5312L97.5781 38.1406C98.7969 36.9219 98.7969 34.9375 97.5781 33.7188L77.2031 13.4219ZM59.6719 29.1562C62.2187 29.375 65.3906 29.6406 67.8281 27.2188L67.9688 27.0781L83.8594 42.9687L75.75 51.0781L62.0938 37.4219C62.7344 36.2344 62.5781 34.7344 61.5625 33.7344C60.3438 32.5156 58.3594 32.5156 57.1406 33.7344L47.7656 43.1094C47.7656 43.1094 47.2188 43.5938 46.5469 43.8125C46.0156 43.9844 45.3594 44.0937 44.375 43.1094C43.9688 42.7031 42.7344 41.4687 44.375 39.7187L53.75 30.3438C55.25 28.8594 56.9844 28.9219 59.6719 29.1562ZM25 20.0469L27.7031 22.75C27.6875 22.7656 27.6719 22.7812 27.6563 22.7969L11.8125 38.6406L9.10937 35.9375L25 20.0469ZM22.4844 59.4844L25.7969 56.1719C26.1875 55.7812 26.6562 55.7188 26.9062 55.7188C27.1562 55.7188 27.6094 55.7812 28.0156 56.1719C28.4063 56.5625 28.4688 57.0312 28.4688 57.2812C28.4688 57.5156 28.4063 57.9844 28.0156 58.3906L24.7031 61.7031C24.3125 62.0938 23.8438 62.1562 23.5938 62.1562C23.3438 62.1562 22.8906 62.0938 22.4844 61.7031C22.0938 61.3125 22.0312 60.8437 22.0312 60.5937C22.0312 60.3437 22.0938 59.8906 22.4844 59.4844ZM29.125 66.125C29.1719 66.0781 29.1875 66.0312 29.2344 66L32.4375 62.7969C33.0469 62.1875 34.0312 62.1875 34.6562 62.7969C35.25 63.3906 35.25 64.3438 34.6875 64.9688C34.6719 64.9844 34.6562 64.9844 34.6406 65C34.6094 65.0312 34.5781 65.0781 34.5312 65.125L31.3281 68.3281C31.3125 68.3437 31.2969 68.375 31.2813 68.3906C30.8906 68.7344 30.4688 68.7969 30.2344 68.7969C29.9844 68.7969 29.5312 68.7344 29.125 68.3438C28.7344 67.9531 28.6719 67.4844 28.6719 67.2344C28.6719 66.9844 28.7344 66.5312 29.125 66.125ZM35.7188 72.7969C35.7344 72.7812 35.75 72.7812 35.7656 72.7656C35.7969 72.7344 35.8281 72.6875 35.875 72.6406L39.0625 69.4375C39.0781 69.4219 39.0781 69.4062 39.0938 69.3906C39.7031 68.8281 40.6562 68.8281 41.25 69.4219C41.8594 70.0312 41.8594 71.0156 41.25 71.625C41.2188 71.6562 41.1875 71.7031 41.1406 71.75L37.9375 74.9531C37.3281 75.5625 36.3438 75.5625 35.7188 74.9531C35.1406 74.3594 35.1406 73.4062 35.7188 72.7969ZM43.4844 82.0469C43.25 82.0469 42.7813 81.9844 42.375 81.5938C41.9844 81.2031 41.9219 80.7344 41.9219 80.4844C41.9219 80.25 41.9844 79.7812 42.375 79.375L45.6875 76.0625C46.2969 75.4531 47.2812 75.4531 47.9062 76.0625C48.5156 76.6719 48.5156 77.6562 47.9062 78.2656L44.5938 81.5781C44.1875 81.9844 43.7188 82.0469 43.4844 82.0469ZM55.4531 81.5781C55.0625 81.9688 54.5937 82.0312 54.3437 82.0312C54.0937 82.0312 53.6406 81.9688 53.2344 81.5781C53.2344 81.5781 53.2188 81.5781 53.2188 81.5625C53.875 80.5938 54.2969 79.5156 54.4688 78.3906L55.4375 79.3594C55.8281 79.75 55.8906 80.2188 55.8906 80.4688C55.9062 80.7188 55.8438 81.1875 55.4531 81.5781ZM75.3281 61.7031C74.9375 62.0938 74.4688 62.1562 74.2188 62.1562C73.9844 62.1562 73.5156 62.0938 73.1094 61.7031L64.2656 52.8594C63.0469 51.6406 61.0625 51.6406 59.8437 52.8594C58.625 54.0781 58.625 56.0625 59.8437 57.2812L68.5625 66C68.5938 66.0469 68.625 66.0937 68.6719 66.125C69.0625 66.5312 69.125 66.9844 69.125 67.2344C69.125 67.4687 69.0625 67.9375 68.6719 68.3438C68.2812 68.7344 67.8125 68.7969 67.5625 68.7969C67.3281 68.7969 66.9062 68.7344 66.5156 68.3906C66.5 68.375 66.4844 68.3437 66.4688 68.3281L57.625 59.4844C56.4062 58.2656 54.4219 58.2656 53.2031 59.4844C51.9844 60.7031 51.9844 62.6875 53.2031 63.9062L61.9219 72.625C61.9531 72.6719 61.9844 72.7188 62.0312 72.75C62.0469 72.7656 62.0625 72.7656 62.0781 72.7812C62.6406 73.3906 62.6406 74.3437 62.0469 74.9375C61.4375 75.5469 60.4375 75.5469 59.8281 74.9375L51 66.1094C49.7812 64.8906 47.7969 64.8906 46.5781 66.1094C46.5781 66.1094 46.5781 66.125 46.5625 66.125C46.2969 65.7344 46 65.3437 45.6406 65C44.3906 63.75 42.8281 63.0469 41.2031 62.8125C40.9688 61.1875 40.2656 59.625 39.0312 58.375C37.7812 57.125 36.2188 56.4219 34.5781 56.1875C34.3438 54.5156 33.6094 52.9531 32.3906 51.7344C30.9219 50.2656 28.9531 49.4375 26.8594 49.4375C25.6406 49.4375 24.4844 49.75 23.4219 50.2656L16.1875 43.0312L32.0313 27.1875C32.0469 27.1719 32.0625 27.1563 32.0781 27.1406L32.125 27.1875C34.5625 29.625 37.7344 29.3437 40.2813 29.125C42.5469 28.9219 44.1406 28.8594 45.4688 29.7344L39.9375 35.2656C37.4844 37.7188 35.4531 43.0156 39.9375 47.5C44.4219 51.9844 49.7187 49.9531 52.1719 47.5L57.75 41.9219L75.2969 59.4688C75.6875 59.875 75.75 60.3281 75.75 60.5781C75.7969 60.8281 75.7344 61.2969 75.3281 61.7031ZM88.2812 38.5469L72.3906 22.6562L75 20.0469L90.8906 35.9375L88.2812 38.5469Z" fill="url(#paint0_linear_0_149)"/>
</g>
<defs>
<linearGradient id="paint0_linear_0_149" x1="71.1981" y1="12.5078" x2="16.3871" y2="26.7923" gradientUnits="userSpaceOnUse">
<stop stop-color="#EB4899"/>
<stop offset="1" stop-color="#7400FC"/>
</linearGradient>
</defs>
</svg>
