<svg width="84" height="84" viewBox="0 0 84 84" fill="none" xmlns="http://www.w3.org/2000/svg">
<g id="_icons">
<path id="Vector" d="M24.0089 78.0512C25.7526 81.5141 29.1664 83.6666 32.916 83.6666H51.0843C54.8339 83.6666 58.2476 81.5141 59.9914 78.0512C61.861 74.3383 61.4968 69.9741 59.0414 66.6641L49.9572 54.4083C48.0364 51.8183 45.1351 50.3333 42.0001 50.3333C38.8651 50.3333 35.9639 51.8183 34.0431 54.4083L24.9589 66.6641C22.5035 69.9745 22.1393 74.3383 24.0089 78.0512ZM31.6526 71.6283L40.7368 59.3724C41.6035 58.2045 42.3968 58.2045 43.2635 59.3724L52.3476 71.6283C53.0272 72.5437 52.8968 73.612 52.5472 74.3037C52.3539 74.6882 51.906 75.3333 51.0843 75.3333H32.916C32.0939 75.3333 31.6464 74.6882 31.4531 74.3037C31.1035 73.612 30.9731 72.5441 31.6526 71.6283Z" fill="url(#paint0_linear_35_3)"/>
<path id="Vector_2" d="M52.2439 50.1908C52.726 50.372 53.2206 50.4595 53.7089 50.4595C55.3935 50.4595 56.9823 49.4278 57.6089 47.7558C58.311 45.8878 58.6668 43.9512 58.6668 41.9999C58.6668 32.8099 51.1902 25.3333 42.0002 25.3333C32.8102 25.3333 25.3335 32.8099 25.3335 41.9999C25.3335 43.9512 25.6893 45.8878 26.3914 47.7553C27.201 49.912 29.6118 50.9983 31.7564 50.1908C33.911 49.3833 35.0014 46.9803 34.1918 44.8258C33.8439 43.8983 33.6668 42.9462 33.6668 41.9999C33.6668 37.4041 37.4043 33.6666 42.0002 33.6666C46.596 33.6666 50.3335 37.4041 50.3335 41.9999C50.3335 42.9462 50.1564 43.8983 49.8085 44.8258C48.9989 46.9803 50.0893 49.3833 52.2439 50.1908Z" fill="url(#paint1_linear_35_3)"/>
<path id="Vector_3" d="M65.4622 59.2849C69.1956 54.2924 71.1668 48.3149 71.1668 41.9999C71.1668 25.917 58.0831 12.8333 42.0002 12.8333C25.9172 12.8333 12.8335 25.917 12.8335 41.9999C12.8335 48.3149 14.8047 54.2924 18.5381 59.2849C19.9135 61.1262 22.5218 61.5066 24.3689 60.127C26.2122 58.7495 26.5906 56.1395 25.211 54.2962C22.5664 50.7545 21.1668 46.5045 21.1668 41.9999C21.1668 30.5133 30.5135 21.1666 42.0002 21.1666C53.4868 21.1666 62.8335 30.5133 62.8335 41.9999C62.8335 46.5045 61.4339 50.7545 58.7889 54.2966C57.4093 56.1399 57.7881 58.7499 59.631 60.1274C60.3797 60.687 61.2543 60.9574 62.1214 60.9574C63.391 60.9574 64.6443 60.3795 65.4622 59.2849Z" fill="url(#paint2_linear_35_3)"/>
<path id="Vector_4" d="M18.0947 71.0891C19.7327 69.4716 19.7489 66.8349 18.1314 65.197C12.0277 59.0166 8.66683 50.7787 8.66683 41.9999C8.66683 23.6203 23.6206 8.66658 42.0002 8.66658C60.3797 8.66658 75.3335 23.6203 75.3335 41.9999C75.3335 50.7787 71.9727 59.0166 65.8689 65.1974C64.2514 66.8353 64.2677 69.472 65.9056 71.0895C66.7172 71.8912 67.7752 72.292 68.8331 72.292C69.9072 72.292 70.9835 71.8791 71.7972 71.0528C79.4514 63.3032 83.6668 52.9841 83.6668 41.9999C83.6668 19.0241 64.976 0.333252 42.0002 0.333252C19.0243 0.333252 0.333496 19.0241 0.333496 41.9999C0.333496 52.9841 4.54891 63.3032 12.2027 71.0528C13.8181 72.6924 16.4589 72.7045 18.0947 71.0891Z" fill="url(#paint3_linear_35_3)"/>
</g>
<defs>
<linearGradient id="paint0_linear_35_3" x1="50.3757" y1="50.3333" x2="28.4218" y2="55.4817" gradientUnits="userSpaceOnUse">
<stop stop-color="#EB4899"/>
<stop offset="1" stop-color="#7400FC"/>
</linearGradient>
<linearGradient id="paint1_linear_35_3" x1="49.2799" y1="25.3333" x2="30.5206" y2="30.4059" gradientUnits="userSpaceOnUse">
<stop stop-color="#EB4899"/>
<stop offset="1" stop-color="#7400FC"/>
</linearGradient>
<linearGradient id="paint2_linear_35_3" x1="54.7396" y1="12.8332" x2="21.5374" y2="21.0366" gradientUnits="userSpaceOnUse">
<stop stop-color="#EB4899"/>
<stop offset="1" stop-color="#7400FC"/>
</linearGradient>
<linearGradient id="paint3_linear_35_3" x1="60.1994" y1="0.333249" x2="12.5284" y2="11.5861" gradientUnits="userSpaceOnUse">
<stop stop-color="#EB4899"/>
<stop offset="1" stop-color="#7400FC"/>
</linearGradient>
</defs>
</svg>
