<svg width="25" height="24" viewBox="0 0 25 24" fill="none" xmlns="http://www.w3.org/2000/svg">
<g id="Telegram">
<path id="Vector" d="M16.614 9.29103C17.166 8.73903 17.714 7.45103 15.414 9.01503C13.2655 10.4937 11.1024 11.9511 8.92501 13.387C8.59345 13.537 8.235 13.6183 7.87121 13.6262C7.50741 13.6341 7.14577 13.5684 6.80801 13.433C5.42801 13.019 3.81701 12.467 3.81701 12.467C3.81701 12.467 2.71701 11.776 4.60001 11.04C4.60001 11.04 12.561 7.77303 15.322 6.62203C16.38 6.16203 19.969 4.69003 19.969 4.69003C19.969 4.69003 21.626 4.04503 21.488 5.61003C21.442 6.25403 21.074 8.51003 20.706 10.948C20.153 14.399 19.555 18.173 19.555 18.173C19.555 18.173 19.463 19.231 18.681 19.415C17.8439 19.4009 17.0351 19.1097 16.381 18.587C16.197 18.449 12.93 16.378 11.733 15.366C11.6112 15.2835 11.5123 15.1716 11.4454 15.0406C11.3786 14.9096 11.3459 14.7639 11.3505 14.6169C11.3551 14.4699 11.3968 14.3264 11.4717 14.1999C11.5466 14.0733 11.6523 13.9678 11.779 13.893C13.4208 12.391 15.0327 10.8567 16.614 9.29103Z" fill="white"/>
</g>
</svg>
