<svg width="18" height="18" viewBox="0 0 18 18" fill="none" xmlns="http://www.w3.org/2000/svg">
<g id="Icon/Solid/arrow-circle-right">
<path id="Icon" d="M15.7 9.00005C15.7 12.7004 12.7003 15.7 8.99999 15.7C5.29968 15.7 2.29999 12.7004 2.29999 9.00005C2.29999 5.29974 5.29968 2.30005 8.99999 2.30005C12.7003 2.30005 15.7 5.29974 15.7 9.00005ZM12.6899 8.0101L9.98994 5.3101C9.4432 4.76337 8.55677 4.76337 8.01004 5.3101C7.4633 5.85683 7.4633 6.74326 8.01004 7.29L8.32009 7.60005L6.29999 7.60005C5.52679 7.60005 4.89999 8.22685 4.89999 9.00005C4.89999 9.77325 5.52679 10.4 6.29999 10.4H8.32009L8.01004 10.7101C7.4633 11.2568 7.4633 12.1433 8.01004 12.69C8.55677 13.2367 9.4432 13.2367 9.98994 12.69L12.6899 9.99C13.2367 9.44327 13.2367 8.55683 12.6899 8.0101Z" fill="white" stroke="white"/>
</g>
</svg>
