<svg width="18" height="19" viewBox="0 0 18 19" fill="none" xmlns="http://www.w3.org/2000/svg">
<g id="Icon/Solid/lightning-bolt" clip-path="url(#clip0_114_24)">
<path id="Icon" fill-rule="evenodd" clip-rule="evenodd" d="M10.1706 1.4416C10.5452 1.5597 10.8 1.90714 10.8 2.29997V6.79997L14.4 6.79997C14.7356 6.79997 15.0433 6.98668 15.1983 7.28434C15.3533 7.582 15.3298 7.94116 15.1373 8.21608L8.83732 17.2161C8.61205 17.5379 8.20409 17.6764 7.82944 17.5583C7.45479 17.4402 7.20002 17.0928 7.20002 16.7L7.20002 12.2H3.60001C3.26443 12.2 2.95671 12.0133 2.80173 11.7156C2.64676 11.4179 2.67026 11.0588 2.86271 10.7839L9.16271 1.78385C9.38797 1.46204 9.79594 1.32351 10.1706 1.4416Z" fill="white" stroke="white" stroke-width="2" stroke-linecap="round" stroke-linejoin="round"/>
</g>
<defs>
<clipPath id="clip0_114_24">
<rect width="18" height="18" fill="white" transform="translate(0 0.5)"/>
</clipPath>
</defs>
</svg>
